<?xml version="1.0" encoding="utf-8"?>
<!-- Generator: Adobe Illustrator 25.0.1, SVG Export Plug-In . SVG Version: 6.00 Build 0)  -->
<svg version="1.1" id="Layer_1" xmlns="http://www.w3.org/2000/svg" xmlns:xlink="http://www.w3.org/1999/xlink" x="0px" y="0px"
	 viewBox="0 0 400 512" style="enable-background:new 0 0 400 512;" xml:space="preserve">
<style type="text/css">
	.st0{fill-rule:evenodd;clip-rule:evenodd;fill:#05F29B;}
	.st1{fill-rule:evenodd;clip-rule:evenodd;fill:#FFFFFF;filter:url(#Adobe_OpacityMaskFilter);}
	.st2{mask:url(#path-1-inside-1_1_);fill:#E5E5E5;}
	.st3{fill:#05F29B;}
</style>
<path class="st0" d="M105.3,37.6c0.7-0.7,1.4-1.5,2.1-2.2C128.9,13.9,158,1.9,191.9,0.2c2.7-0.1,5.4-0.2,8.1-0.2
	c6.4,0,12.7,0.4,18.8,1.1c9.6,1.1,18.8,3.1,27.5,6c0.3,0.1,0.5,0.2,0.8,0.3c17.4,5.9,32.8,15.3,45.5,28c23,23,35.3,54.8,35.4,91.9
	c0,0.2,0,0.5,0,0.7c0,42.6-21.4,81.7-61.7,113c-8.3,6.5-16.6,11.9-24.3,16.5c44.9,28.7,85.9,64.7,86,126.1c0,0.1,0,0.3,0,0.4
	c0,37.4-12.2,69.4-35.4,92.6C269.4,499.8,237.4,512,200,512c-6.4,0-12.6-0.4-18.7-1.1c-9.6-1.1-18.9-3.1-27.6-6
	c-0.3-0.1-0.5-0.2-0.8-0.3c-17.4-5.9-32.8-15.3-45.5-28c-23.1-23.1-35.3-54.9-35.4-92.1c0-0.2,0-0.3,0-0.5c0-1,0-2,0-2.9
	c1-41.5,22.2-79.4,61.7-110.1c8.3-6.5,16.6-11.9,24.3-16.5c-44.9-28.7-85.8-64.6-86-125.9c0-0.2,0-0.4,0-0.6c0-12.3,1.3-24,3.9-35.1
	C81,71.5,90.9,52.8,105.3,37.6z M198,278.6c-12.3,5.7-35.3,18-54.4,36.9c-0.8,1.5-1.9,3-3.2,4.3c-16.2,16.9-25.3,34.4-27.8,53.5
	c-0.4,3.4-0.7,6.8-0.7,10.2c0,0.2,0,0.3,0,0.5c0,0.1,0,0.3,0,0.4c0,10.7,1.4,20.9,4.1,30.1c0.1,0.4,0.2,0.8,0.3,1.2
	c10.4,34,38.5,54.6,78.5,56.2c1.7,0.1,3.3,0.1,5,0.1c54.3,0,88-33.7,88-88c0-0.1,0-0.2,0-0.2C287.9,334.1,247,307.6,198,278.6z
	 M202,233.4c12.3-5.7,35.3-18,54.4-36.9c0.8-1.5,1.9-3,3.2-4.3c16.2-16.9,25.3-34.5,27.8-53.5c0.4-3,0.6-6.1,0.7-9.2
	c0-0.5,0-0.9,0-1.4c0-0.2,0-0.4,0-0.6c-0.1-10.7-1.4-20.7-4.1-29.9c-0.1-0.4-0.2-0.8-0.3-1.2c-10.4-34.1-38.7-54.8-79-56.2
	c-1.5-0.1-3-0.1-4.5-0.1c-0.2,0-0.4,0-0.6,0c-53.9,0.3-87.4,33.9-87.4,88c0,0.1,0,0.3,0,0.4C112.2,178,153.1,204.4,202,233.4z"/>
<defs>
	<filter id="Adobe_OpacityMaskFilter" filterUnits="userSpaceOnUse" x="67" y="7.1" width="266" height="121.5">
		<feColorMatrix  type="matrix" values="1 0 0 0 0  0 1 0 0 0  0 0 1 0 0  0 0 0 1 0"/>
	</filter>
</defs>
<mask maskUnits="userSpaceOnUse" x="67" y="7.1" width="266" height="121.5" id="path-1-inside-1_1_">
	<path class="st1" d="M105.3,37.6c0.7-0.7,1.4-1.5,2.1-2.2C128.9,13.9,158,1.9,191.9,0.2c2.7-0.1,5.4-0.2,8.1-0.2
		c6.4,0,12.7,0.4,18.8,1.1c9.6,1.1,18.8,3.1,27.5,6c0.3,0.1,0.5,0.2,0.8,0.3c17.4,5.9,32.8,15.3,45.5,28c23,23,35.3,54.8,35.4,91.9
		c0,0.2,0,0.5,0,0.7c0,42.6-21.4,81.7-61.7,113c-8.3,6.5-16.6,11.9-24.3,16.5c44.9,28.7,85.9,64.7,86,126.1c0,0.1,0,0.3,0,0.4
		c0,37.4-12.2,69.4-35.4,92.6C269.4,499.8,237.4,512,200,512c-6.4,0-12.6-0.4-18.7-1.1c-9.6-1.1-18.9-3.1-27.6-6
		c-0.3-0.1-0.5-0.2-0.8-0.3c-17.4-5.9-32.8-15.3-45.5-28c-23.1-23.1-35.3-54.9-35.4-92.1c0-0.2,0-0.3,0-0.5c0-1,0-2,0-2.9
		c1-41.5,22.2-79.4,61.7-110.1c8.3-6.5,16.6-11.9,24.3-16.5c-44.9-28.7-85.8-64.6-86-125.9c0-0.2,0-0.4,0-0.6
		c0-12.3,1.3-24,3.9-35.1C81,71.5,90.9,52.8,105.3,37.6z M198,278.6c-12.3,5.7-35.3,18-54.4,36.9c-0.8,1.5-1.9,3-3.2,4.3
		c-16.2,16.9-25.3,34.4-27.8,53.5c-0.4,3.4-0.7,6.8-0.7,10.2c0,0.2,0,0.3,0,0.5c0,0.1,0,0.3,0,0.4c0,10.7,1.4,20.9,4.1,30.1
		c0.1,0.4,0.2,0.8,0.3,1.2c10.4,34,38.5,54.6,78.5,56.2c1.7,0.1,3.3,0.1,5,0.1c54.3,0,88-33.7,88-88c0-0.1,0-0.2,0-0.2
		C287.9,334.1,247,307.6,198,278.6z M202,233.4c12.3-5.7,35.3-18,54.4-36.9c0.8-1.5,1.9-3,3.2-4.3c16.2-16.9,25.3-34.5,27.8-53.5
		c0.4-3,0.6-6.1,0.7-9.2c0-0.5,0-0.9,0-1.4c0-0.2,0-0.4,0-0.6c-0.1-10.7-1.4-20.7-4.1-29.9c-0.1-0.4-0.2-0.8-0.3-1.2
		c-10.4-34.1-38.7-54.8-79-56.2c-1.5-0.1-3-0.1-4.5-0.1c-0.2,0-0.4,0-0.6,0c-53.9,0.3-87.4,33.9-87.4,88c0,0.1,0,0.3,0,0.4
		C112.2,178,153.1,204.4,202,233.4z"/>
</mask>
<path class="st2" d="M246.3,7.1l-1.6,4.7l0,0L246.3,7.1z M328,127.3l5,0L328,127.3z M328,128h5l0,0H328z M72,128.6l5,0l0,0L72,128.6
	z M67,128c0,0.2,0,0.4,0,0.6l10,0c0-0.2,0-0.4,0-0.6H67z"/>
<path class="st3" d="M13,144h374c7.2,0,13,5.8,13,13v4c0,7.2-5.8,13-13,13H13c-7.2,0-13-5.8-13-13v-4C0,149.8,5.8,144,13,144z"/>
<path class="st3" d="M13,399h374c7.2,0,13,5.8,13,13v4c0,7.2-5.8,13-13,13H13c-7.2,0-13-5.8-13-13v-4C0,404.8,5.8,399,13,399z"/>
<path class="st3" d="M13,80h374c7.2,0,13,5.8,13,13v4c0,7.2-5.8,13-13,13H13c-7.2,0-13-5.8-13-13v-4C0,85.8,5.8,80,13,80z"/>
<path class="st3" d="M13,335h374c7.2,0,13,5.8,13,13v4c0,7.2-5.8,13-13,13H13c-7.2,0-13-5.8-13-13v-4C0,340.8,5.8,335,13,335z"/>
</svg>
